<mxfile host="Electron" modified="2023-09-26T19:59:59.246Z" agent="Mozilla/5.0 (X11; Linux x86_64) AppleWebKit/537.36 (KHTML, like Gecko) draw.io/21.3.7 Chrome/112.0.5615.204 Electron/24.5.0 Safari/537.36" etag="DiJSV5ZdThU_dXul36ot" version="21.3.7" type="device">
  <diagram name="Page-1" id="Ck5LSHp_cHwPalRI9T7m">
    <mxGraphModel dx="2762" dy="1119" grid="1" gridSize="10" guides="1" tooltips="1" connect="1" arrows="1" fold="1" page="1" pageScale="1" pageWidth="850" pageHeight="1100" math="0" shadow="0">
      <root>
        <mxCell id="0" />
        <mxCell id="1" parent="0" />
        <mxCell id="VO7MqQJ7MxYWRzIfcvDW-9" value="" style="group" vertex="1" connectable="0" parent="1">
          <mxGeometry x="20" y="310" width="300" height="200" as="geometry" />
        </mxCell>
        <mxCell id="VO7MqQJ7MxYWRzIfcvDW-10" value="Client" style="shape=umlFrame;whiteSpace=wrap;html=1;pointerEvents=0;perimeterSpacing=0;" vertex="1" parent="VO7MqQJ7MxYWRzIfcvDW-9">
          <mxGeometry width="300" height="200" as="geometry" />
        </mxCell>
        <mxCell id="VO7MqQJ7MxYWRzIfcvDW-11" value="" style="sketch=0;pointerEvents=1;shadow=0;dashed=0;html=1;strokeColor=none;fillColor=#000000;labelPosition=center;verticalLabelPosition=bottom;verticalAlign=top;outlineConnect=0;align=center;shape=mxgraph.office.devices.cell_phone_iphone_proportional;" vertex="1" parent="VO7MqQJ7MxYWRzIfcvDW-9">
          <mxGeometry x="80" y="20" width="50" height="80" as="geometry" />
        </mxCell>
        <mxCell id="VO7MqQJ7MxYWRzIfcvDW-12" value="" style="shape=mxgraph.signs.tech.computer;html=1;pointerEvents=1;fillColor=#000000;strokeColor=none;verticalLabelPosition=bottom;verticalAlign=top;align=center;" vertex="1" parent="VO7MqQJ7MxYWRzIfcvDW-9">
          <mxGeometry x="150" y="20" width="70" height="80" as="geometry" />
        </mxCell>
        <mxCell id="VO7MqQJ7MxYWRzIfcvDW-13" value="" style="dashed=0;outlineConnect=0;html=1;align=center;labelPosition=center;verticalLabelPosition=bottom;verticalAlign=top;shape=mxgraph.weblogos.chrome" vertex="1" parent="VO7MqQJ7MxYWRzIfcvDW-9">
          <mxGeometry x="200" y="117.69999999999999" width="60" height="60" as="geometry" />
        </mxCell>
        <mxCell id="VO7MqQJ7MxYWRzIfcvDW-14" value="" style="shape=image;verticalLabelPosition=bottom;labelBackgroundColor=default;verticalAlign=top;aspect=fixed;imageAspect=0;image=https://upload.wikimedia.org/wikipedia/commons/thumb/2/28/Firefox_logo%2C_2017.svg/800px-Firefox_logo%2C_2017.svg.png;" vertex="1" parent="VO7MqQJ7MxYWRzIfcvDW-9">
          <mxGeometry x="110" y="112.69999999999999" width="70" height="70" as="geometry" />
        </mxCell>
        <mxCell id="VO7MqQJ7MxYWRzIfcvDW-15" value="Client" style="shape=umlFrame;whiteSpace=wrap;html=1;pointerEvents=0;perimeterSpacing=0;" vertex="1" parent="VO7MqQJ7MxYWRzIfcvDW-9">
          <mxGeometry width="300" height="200" as="geometry" />
        </mxCell>
        <mxCell id="VO7MqQJ7MxYWRzIfcvDW-16" value="" style="sketch=0;pointerEvents=1;shadow=0;dashed=0;html=1;strokeColor=none;fillColor=#000000;labelPosition=center;verticalLabelPosition=bottom;verticalAlign=top;outlineConnect=0;align=center;shape=mxgraph.office.devices.cell_phone_iphone_proportional;" vertex="1" parent="VO7MqQJ7MxYWRzIfcvDW-9">
          <mxGeometry x="80" y="20" width="50" height="80" as="geometry" />
        </mxCell>
        <mxCell id="VO7MqQJ7MxYWRzIfcvDW-17" value="" style="shape=mxgraph.signs.tech.computer;html=1;pointerEvents=1;fillColor=#000000;strokeColor=none;verticalLabelPosition=bottom;verticalAlign=top;align=center;" vertex="1" parent="VO7MqQJ7MxYWRzIfcvDW-9">
          <mxGeometry x="150" y="20" width="70" height="80" as="geometry" />
        </mxCell>
        <mxCell id="VO7MqQJ7MxYWRzIfcvDW-18" value="" style="dashed=0;outlineConnect=0;html=1;align=center;labelPosition=center;verticalLabelPosition=bottom;verticalAlign=top;shape=mxgraph.weblogos.chrome" vertex="1" parent="VO7MqQJ7MxYWRzIfcvDW-9">
          <mxGeometry x="200" y="117.69999999999999" width="60" height="60" as="geometry" />
        </mxCell>
        <mxCell id="VO7MqQJ7MxYWRzIfcvDW-19" value="" style="shape=image;verticalLabelPosition=bottom;labelBackgroundColor=default;verticalAlign=top;aspect=fixed;imageAspect=0;image=https://upload.wikimedia.org/wikipedia/commons/thumb/2/28/Firefox_logo,_2017.svg/800px-Firefox_logo,_2017.svg.png;" vertex="1" parent="VO7MqQJ7MxYWRzIfcvDW-9">
          <mxGeometry x="110" y="112.69999999999999" width="70" height="70" as="geometry" />
        </mxCell>
        <mxCell id="VO7MqQJ7MxYWRzIfcvDW-20" value="" style="shape=image;verticalLabelPosition=bottom;labelBackgroundColor=default;verticalAlign=top;aspect=fixed;imageAspect=0;image=https://upload.wikimedia.org/wikipedia/commons/thumb/5/52/Safari_browser_logo.svg/2057px-Safari_browser_logo.svg.png;" vertex="1" parent="VO7MqQJ7MxYWRzIfcvDW-9">
          <mxGeometry x="20" y="117.69999999999999" width="67.58" height="67.3" as="geometry" />
        </mxCell>
        <mxCell id="VO7MqQJ7MxYWRzIfcvDW-21" value="Server" style="shape=umlFrame;whiteSpace=wrap;html=1;pointerEvents=0;perimeterSpacing=0;" vertex="1" parent="1">
          <mxGeometry x="370" y="10" width="810" height="1090" as="geometry" />
        </mxCell>
        <mxCell id="VO7MqQJ7MxYWRzIfcvDW-35" style="edgeStyle=orthogonalEdgeStyle;rounded=0;orthogonalLoop=1;jettySize=auto;html=1;exitX=0;exitY=0.25;exitDx=0;exitDy=0;endArrow=none;endFill=0;startArrow=classic;startFill=1;fillColor=#dae8fc;strokeColor=#6c8ebf;" edge="1" parent="1">
          <mxGeometry relative="1" as="geometry">
            <mxPoint x="440" y="395" as="sourcePoint" />
            <mxPoint x="320" y="395" as="targetPoint" />
            <Array as="points" />
          </mxGeometry>
        </mxCell>
        <mxCell id="VO7MqQJ7MxYWRzIfcvDW-36" value="Requests" style="edgeLabel;html=1;align=center;verticalAlign=middle;resizable=0;points=[];" vertex="1" connectable="0" parent="VO7MqQJ7MxYWRzIfcvDW-35">
          <mxGeometry x="0.2744" y="-1" relative="1" as="geometry">
            <mxPoint x="8" as="offset" />
          </mxGeometry>
        </mxCell>
        <mxCell id="VO7MqQJ7MxYWRzIfcvDW-37" style="edgeStyle=orthogonalEdgeStyle;rounded=0;orthogonalLoop=1;jettySize=auto;html=1;exitX=0;exitY=0.75;exitDx=0;exitDy=0;entryX=1.003;entryY=0.58;entryDx=0;entryDy=0;entryPerimeter=0;fillColor=#dae8fc;strokeColor=#6c8ebf;" edge="1" parent="1" target="VO7MqQJ7MxYWRzIfcvDW-15">
          <mxGeometry relative="1" as="geometry">
            <mxPoint x="440" y="425" as="sourcePoint" />
          </mxGeometry>
        </mxCell>
        <mxCell id="VO7MqQJ7MxYWRzIfcvDW-38" value="Response" style="edgeLabel;html=1;align=center;verticalAlign=middle;resizable=0;points=[];" vertex="1" connectable="0" parent="VO7MqQJ7MxYWRzIfcvDW-37">
          <mxGeometry x="0.2842" y="2" relative="1" as="geometry">
            <mxPoint x="6" as="offset" />
          </mxGeometry>
        </mxCell>
        <mxCell id="VO7MqQJ7MxYWRzIfcvDW-84" value="" style="swimlane;startSize=0;" vertex="1" parent="1">
          <mxGeometry x="-80" y="780" width="420" height="225" as="geometry">
            <mxRectangle x="20" y="755" width="50" height="40" as="alternateBounds" />
          </mxGeometry>
        </mxCell>
        <mxCell id="VO7MqQJ7MxYWRzIfcvDW-85" value="Class/File" style="html=1;whiteSpace=wrap;" vertex="1" parent="VO7MqQJ7MxYWRzIfcvDW-84">
          <mxGeometry x="35" y="15" width="85" height="55" as="geometry" />
        </mxCell>
        <mxCell id="VO7MqQJ7MxYWRzIfcvDW-86" value="" style="rounded=1;whiteSpace=wrap;html=1;fillColor=#ffe6cc;strokeColor=#d79b00;align=left;" vertex="1" parent="VO7MqQJ7MxYWRzIfcvDW-84">
          <mxGeometry x="27.5" y="85" width="100" height="65" as="geometry" />
        </mxCell>
        <mxCell id="VO7MqQJ7MxYWRzIfcvDW-87" value="Layer" style="text;html=1;align=center;verticalAlign=middle;resizable=0;points=[];autosize=1;strokeColor=none;fillColor=none;" vertex="1" parent="VO7MqQJ7MxYWRzIfcvDW-84">
          <mxGeometry x="20" y="120" width="50" height="30" as="geometry" />
        </mxCell>
        <mxCell id="VO7MqQJ7MxYWRzIfcvDW-88" value="" style="endArrow=classic;html=1;rounded=0;fillColor=#f8cecc;strokeColor=#b85450;dashed=1;" edge="1" parent="VO7MqQJ7MxYWRzIfcvDW-84">
          <mxGeometry width="50" height="50" relative="1" as="geometry">
            <mxPoint x="160" y="42.049999999999955" as="sourcePoint" />
            <mxPoint x="240" y="42.049999999999955" as="targetPoint" />
          </mxGeometry>
        </mxCell>
        <mxCell id="VO7MqQJ7MxYWRzIfcvDW-89" value="" style="endArrow=classic;html=1;rounded=0;startArrow=classic;startFill=1;" edge="1" parent="VO7MqQJ7MxYWRzIfcvDW-84">
          <mxGeometry width="50" height="50" relative="1" as="geometry">
            <mxPoint x="290" y="42.049999999999955" as="sourcePoint" />
            <mxPoint x="370" y="42.049999999999955" as="targetPoint" />
          </mxGeometry>
        </mxCell>
        <mxCell id="VO7MqQJ7MxYWRzIfcvDW-90" value="Comunication" style="text;html=1;align=center;verticalAlign=middle;resizable=0;points=[];autosize=1;strokeColor=none;fillColor=none;" vertex="1" parent="VO7MqQJ7MxYWRzIfcvDW-84">
          <mxGeometry x="280" y="48" width="100" height="30" as="geometry" />
        </mxCell>
        <mxCell id="VO7MqQJ7MxYWRzIfcvDW-91" value="package" style="shape=folder;fontStyle=1;spacingTop=10;tabWidth=40;tabHeight=14;tabPosition=left;html=1;whiteSpace=wrap;" vertex="1" parent="VO7MqQJ7MxYWRzIfcvDW-84">
          <mxGeometry x="250" y="150" width="70" height="50" as="geometry" />
        </mxCell>
        <mxCell id="VO7MqQJ7MxYWRzIfcvDW-92" value="" style="endArrow=classic;html=1;rounded=0;startArrow=none;startFill=0;fillColor=#dae8fc;strokeColor=#6c8ebf;" edge="1" parent="VO7MqQJ7MxYWRzIfcvDW-84">
          <mxGeometry width="50" height="50" relative="1" as="geometry">
            <mxPoint x="145" y="112.04999999999995" as="sourcePoint" />
            <mxPoint x="315" y="112.04999999999995" as="targetPoint" />
          </mxGeometry>
        </mxCell>
        <mxCell id="VO7MqQJ7MxYWRzIfcvDW-93" value="Request/Response" style="edgeLabel;html=1;align=center;verticalAlign=middle;resizable=0;points=[];" vertex="1" connectable="0" parent="VO7MqQJ7MxYWRzIfcvDW-92">
          <mxGeometry x="-0.2818" relative="1" as="geometry">
            <mxPoint x="24" as="offset" />
          </mxGeometry>
        </mxCell>
        <mxCell id="VO7MqQJ7MxYWRzIfcvDW-94" value="Dependency" style="text;html=1;align=center;verticalAlign=middle;resizable=0;points=[];autosize=1;strokeColor=none;fillColor=none;" vertex="1" parent="1">
          <mxGeometry x="65" y="828" width="90" height="30" as="geometry" />
        </mxCell>
      </root>
    </mxGraphModel>
  </diagram>
</mxfile>
